<svg version="1.1" viewBox="0 0 64.796 17.765" xmlns="http://www.w3.org/2000/svg">
 <g transform="translate(-767.29 545.84)">
  <g transform="translate(751.62 -547.27)">
   <g transform="matrix(0 -.27522 -.28988 0 77.977 -60.238)">
    <path d="m-227.75 174.07c-1.0912-2.6838-.66519-4.6017-.29606-5.5322.26454-.66444.15841-1.4296-.29224-1.9856-.11611-.14458-.22761-.25762-.31449-.33682-.0354-.0331-.0538-.0785-.0538-.12229 0-.0531.0247-.10611.0738-.13917.2553-.1715.34376-.50448.20993-.77901l-.28375-.58598c-.24837-.50832-.8605-.70749-1.3658-.45372-8.2099 4.1203-9.4042-8.7898-9.4273-16.366-.009-2.6838 2.1663-4.8424 4.8171-4.8424.0892 0 .17762.003.26836.008 1.5172.0823 2.4424-1.6395 1.538-2.8607-.0161-.0238-.0329-.0461-.0492-.0692-.97511-1.3219-1.2504-3.033-.74593-4.5948 9.3011-28.812-12.905-32.699-22.661-32.709-9.7553-.01-32.093 3.8269-22.768 32.71.50442 1.5618.22965 3.2714-.7446 4.5925-.0172.0238-.0333.0461-.0505.07-.88269 1.1935-.0211 2.863 1.4336 2.863.0343 0 .0703 0 .1048-.002 2.7702-.1515 5.0943 2.0602 5.0851 4.834-.0225 7.5762-1.2172 20.486-9.4267 16.366-.50575-.25377-1.1177-.0546-1.3658.4537l-.28407.58599c-.0424.0861-.0624.1761-.0624.26762 0 .19917.0982.39295.27209.51137.089.0592.0996.18842.02.26147-.0172.0154-.0347.0331-.053.05-.63715.61442-.77126 1.5734-.38499 2.3693.44335.91205.84951 2.6884-.44202 5.3907-1.9883 4.1572-3.6488 7.6362-3.6488 17.486 0 12.05 12.541 21.973 28.67 23.274 1.1826.0954 2.3865.14457 3.6051.14457 1.2727 0 2.5285-.0531 3.7628-.15841 16.051-1.3519 28.512-11.25 28.512-23.26 0-9.6918-2.0702-13.554-3.6528-17.441" fill="#0760c3"/>
   </g>
   <g transform="matrix(.33163 0 0 .33163 -202.69 -131.44)" fill="#fff">
    <path d="m698.39 420.1 7.3829 16.121h-4.064l-4.6962-11.763zm-4.8542 14.608q-.18063.45156-.0677.76764.11289.31609.38383.49672.27093.15804.54186.15804h.2032v.22578h-4.8316v-.22578t.11289 0q.0903 0 .0903 0 .51929 0 1.0612-.31609.56445-.33867.92569-1.1063zm4.8542-14.608.0903 2.7545-5.5993 13.434h-1.6482l5.8476-13.231q.0677-.13546.22578-.49671.18062-.38382.36124-.85795.2032-.47414.36125-.90312.15804-.45155.15804-.69991zm2.3707 10.882v.94827h-6.6379v-.94827zm.33867 3.7253h3.9511q.38382.76764.92569 1.1063.54186.31609 1.0612.31609 0 0 .0903 0t.0903 0v.22578h-7.1797v-.22578h.2032q.45156 0 .79023-.36124.33866-.38383.0677-1.0612zm7.9248-14.495 14.405 13.727.27093 2.7319-14.405-13.705zm.11289 14.54v1.603h-1.874v-.22578t.2032 0 .22578 0q.56444 0 .97085-.4064.4064-.4064.4064-.97084zm3.1609 0q0 .56444.4064.97084t.97085.4064q.0226 0 .22577 0 .20321 0 .20321 0v.22578h-1.874v-1.603zm-3.2738-14.54 3.2512 3.4544.0226 12.689h-3.2286v-13.321q0-1.2644-.13547-2.032-.13547-.79022-.13547-.79022zm14.608.33867v13.231q0 .83538.0677 1.5127.0677.65476.13547 1.016.0677.36125.0677.36125h-.2032l-3.2738-3.6576v-12.463zm1.8062 0v.22578t-.2032 0-.2032 0q-.56444 0-.97084.4064-.40641.38382-.42898.97084h-.0677v-1.603zm-6.8411 0h1.874v1.603h-.0452q-.0226-.58702-.42898-.97084-.38382-.4064-.97084-.4064 0 0-.2032 0t-.22578 0zm16.753.0677v15.737h-3.3867v-15.737zm5.5316-.0903v.94827h-14.45v-.94827zm0 .88053v2.6642l-.22578-.0226v-.24836q0-1.0612-.63217-1.6708-.60961-.63217-1.6708-.65475v-.0677zm0-1.2869v.65476l-2.7545-.24836q.49671 0 1.0386-.0677.56444-.0677 1.0386-.15805.47413-.0903.67733-.18062zm-8.8505 14.585v1.6482h-1.8062v-.22578t.13547 0q.15804 0 .15804 0 .58702 0 .99342-.4064.42898-.42898.45156-1.016zm3.2512 0h.0677q.0226.58702.42898 1.016.42898.4064 1.016.4064 0 0 .13547 0 .15804 0 .15804 0v.22578h-1.8062zm-6.3444-13.298v.0677q-1.0386.0226-1.6708.65475-.6096.60961-.6096 1.6708v.24836l-.22578.0226v-2.6642zm-2.5061-1.2869q.22578.0903.67733.18062.47414.0903 1.0386.15805.56445.0677 1.0386.0677l-2.7545.24836zm20.817.42898v15.804h-3.3867v-15.804zm-3.3189 14.156v1.6482h-1.8062v-.22578t.13547 0q.15804 0 .15804 0 .58702 0 .99342-.4064.42898-.42898.45156-1.016zm0-12.508h-.0677q-.0226-.58702-.45156-.99343-.4064-.42897-.99342-.42897 0 0-.15804 0-.13547 0-.13547 0v-.22578h1.8062zm3.2512 12.508h.0677q.0226.58702.42898 1.016.42898.4064 1.016.4064 0 0 .13547 0 .13546 0 .15804 0v.22578h-1.8062zm0-12.508v-1.6482h1.8062v.22578q-.0226 0-.15804 0-.13547 0-.13547 0-.58702 0-1.016.42897-.4064.40641-.42898.99343z" stroke-width=".26458" aria-label="ANTI"/>
    <path d="m765.97 420.1 7.383 16.121h-4.064l-4.6962-11.763zm-4.8542 14.608q-.18062.45156-.0677.76765.11289.31608.38383.49671.27093.15804.54186.15804h.2032v.22578h-4.8316v-.22578t.11289 0q.0903 0 .0903 0 .51929 0 1.0612-.31609.56445-.33866.92569-1.1063zm4.8542-14.608.0903 2.7545-5.5993 13.434h-1.6482l5.8476-13.231q.0677-.13547.22578-.49672.18062-.38382.36125-.85795.2032-.47414.36124-.90311.15804-.45156.15804-.69992zm2.3707 10.882v.94827h-6.6379v-.94827zm.33867 3.7253h3.9511q.38382.76765.92569 1.1063.54186.31609 1.0612.31609 0 0 .0903 0t.0903 0v.22578h-7.1797v-.22578h.2032q.45156 0 .79023-.36124.33866-.38383.0677-1.0612zm21.066-4.9445.2032 3.8834q-.49671.83538-1.3321 1.5127-.83538.67733-2.0772 1.1063-1.2418.4064-2.9351.4064-2.7545-.0226-4.8316-.99342-2.0546-.99343-3.1835-2.8222t-1.1289-4.4252q0-2.5287 1.1063-4.3575 1.1063-1.8514 3.1609-2.8448 2.0772-.99342 4.9445-.99342 1.8062 0 3.2286.36125 1.445.36124 2.4158.88053l.0226 3.8608h-.2032q-.6096-2.2352-1.9868-3.1835-1.3772-.97084-3.2286-.97084-1.8062 0-3.0932.88053-1.2869.88054-1.9868 2.4836t-.69991 3.8382q0 2.2352.65475 3.8608.67734 1.6256 1.8965 2.5287 1.2418.90312 2.9125.94827 1.7385 0 2.9351-.56444 1.1966-.56445 1.9191-1.874.74507-1.3095 1.1063-3.5221zm11.289-9.5278q2.7093 0 4.6962 1.016 2.0094.99342 3.0932 2.8222 1.1063 1.8288 1.1063 4.3801 0 2.5287-1.1063 4.3801-1.0837 1.8288-3.0932 2.8448-1.9868.99342-4.6962.99342-2.7093 0-4.7188-.99342-1.9868-1.016-3.0706-2.8448-1.0837-1.8288-1.0837-4.3801 0-2.5287 1.0837-4.3575 1.0837-1.8514 3.0706-2.8448 2.0094-1.016 4.7188-1.016zm0 15.488q1.603 0 2.7545-.88053 1.1515-.90311 1.7836-2.5287.63218-1.6256.63218-3.8608t-.63218-3.8608q-.63218-1.6256-1.7836-2.5061-1.1515-.90311-2.7545-.90311-1.5804 0-2.7545.90311-1.1515.88053-1.7836 2.5061-.63218 1.6256-.63218 3.8608t.63218 3.8608q.63217 1.6256 1.7836 2.5287 1.174.88053 2.7545.88053zm16.121-15.488q.45156 0 1.1063.0452.67734.0451 1.3772.13546.72249.0677 1.2418.15805.54186.0677.74506.15804l-.27093 3.048h-.22578q0-1.174-.88053-1.874-.85796-.72249-2.3029-.72249-1.3095 0-2.1223.63218-.79022.63217-.83538 1.5353-.0226.67733.42898 1.174.45155.49671 1.1515.92569l4.3124 2.7996q1.0386.58702 1.5579 1.5353.54187.94827.47414 2.2126-.11289 2.2126-1.6933 3.4544-1.5804 1.2192-4.2898 1.2192-.99342 0-1.9417-.18062-.92569-.15805-1.6482-.45156-.72249-.31609-1.1515-.74507-.18062-.49671-.15804-1.1966.0226-.69991.2032-1.4224.2032-.72249.49671-1.1966h.2032q-.0903 1.1515.4064 2.1449.51929.97084 1.4901 1.5579.99342.56445 2.3481.54187 1.4901-.0226 2.3029-.74507.8128-.74506.8128-1.7836 0-.69991-.42897-1.2644-.4064-.56444-1.3547-1.0837l-3.9511-2.619q-1.1966-.67733-1.7385-1.7385t-.42898-2.3029q.11289-1.174.69992-2.0546.58702-.90312 1.603-1.3998 1.0386-.49671 2.461-.49671zm4.493.22578-.0452.47413h-2.6642v-.47413zm11.537.15804v15.737h-3.3867v-15.737zm5.5316-.0903v.94827h-14.45v-.94827zm0 .88054v2.6642l-.22578-.0226v-.24836q0-1.0612-.63218-1.6708-.6096-.63218-1.6708-.65476v-.0677zm0-1.2869v.65476l-2.7545-.24836q.49671 0 1.0386-.0677.56444-.0677 1.0386-.15805.47413-.0903.67733-.18062zm-8.8505 14.585v1.6482h-1.8062v-.22578t.13546 0q.15805 0 .15805 0 .58702 0 .99342-.4064.42898-.42898.45156-1.016zm3.2512 0h.0677q.0226.58702.42898 1.016.42898.4064 1.016.4064 0 0 .13546 0 .15805 0 .15805 0v.22578h-1.8062zm-6.3444-13.298v.0677q-1.0386.0226-1.6708.65476-.6096.6096-.6096 1.6708v.24836l-.22578.0226v-2.6642zm-2.5061-1.2869q.22578.0903.67733.18062.47414.0903 1.0386.15805.56445.0677 1.0386.0677l-2.7545.24836zm20.744-.0226 7.3829 16.121h-4.064l-4.6962-11.763zm-4.8542 14.608q-.18063.45156-.0677.76765.11289.31608.38383.49671.27093.15804.54186.15804h.2032v.22578h-4.8316v-.22578t.11289 0q.0903 0 .0903 0 .51929 0 1.0612-.31609.56445-.33866.92569-1.1063zm4.8542-14.608.0903 2.7545-5.5993 13.434h-1.6482l5.8476-13.231q.0677-.13547.22578-.49672.18062-.38382.36124-.85795.2032-.47414.36125-.90311.15804-.45156.15804-.69992zm2.3707 10.882v.94827h-6.6379v-.94827zm.33867 3.7253h3.9511q.38383.76765.92569 1.1063.54187.31609 1.0612.31609 0 0 .0903 0t.0903 0v.22578h-7.1797v-.22578h.2032q.45156 0 .79023-.36124.33866-.38383.0677-1.0612z" stroke-width=".26458" aria-label="ACOSTA"/>
    <path d="m693.72 412.1c-.1057-.18573-.19887-.37922-.27531-.57809-.49866-1.3002-1.6674-3.0851-4.2866-2.7558-4.0429.50941-6.631 4.9357-6.9167 17.002-.28546 12.066-.64252 14.921-2.9273 17.207-1.4002 1.3998-2.921.5118-3.8889-.38639-.44074-.40848-.54465-1.0875-.19111-1.5736.0979-.13497.22097-.24425.37624-.30756.74972-.30397 1.6154-3.0876-.79428-3.802-2.2488-.66588-4.5267 2.2431-2.3109 4.9418.19588.23828.37445.4909.52673.7594 1.981 3.4922 6.751 3.6271 9.8878-1.6318 3.6412-6.1035 3.1594-16.277 2.9452-21.954-.2144-5.6757 1.5261-8.9954 3.4538-9.1837.93443-.0902 1.6524.53568 2.1445 1.2053.17916.24426.20006.56973.0597.83841-.384.7327-.82115 2.9369.84778 2.9369 1.379 0 2.0566-1.4751 1.3492-2.717" fill="#fff"/>
   </g>
  </g>
 </g>
</svg>
