<svg version="1.1" viewBox="0 0 32.281 8.7171" xmlns="http://www.w3.org/2000/svg">
 <g transform="translate(-1227 216.02)">
  <g transform="translate(1218.4 -228.34)">
   <g transform="matrix(.098052 0 0 .098052 -26.058 -17.491)" fill="#fff" style="white-space:pre" aria-label="SANTI
ACOSTA">
    <path d="m553.37 329.59q0 2.0391-.96094 4.0312-.9375 1.9922-2.6484 3.375-1.875 1.5-4.3828 2.3438-2.4844.84375-6 .84375-3.7734 0-6.7969-.70313-3-.70312-6.1172-2.0859v-5.8125h.32812q2.6484 2.2031 6.1172 3.3984 3.4688 1.1953 6.5156 1.1953 4.3125 0 6.7031-1.6172 2.4141-1.6172 2.4141-4.3125 0-2.3203-1.1484-3.4219-1.125-1.1016-3.4453-1.7109-1.7578-.46875-3.8203-.77344-2.0391-.30469-4.3359-.77344-4.6406-.98437-6.8906-3.3516-2.2266-2.3906-2.2266-6.2109 0-4.3828 3.7031-7.1719 3.7031-2.8125 9.3984-2.8125 3.6797 0 6.75.70312 3.0703.70313 5.4375 1.7344v5.4844h-.32813q-1.9922-1.6875-5.25-2.7891-3.2344-1.125-6.6328-1.125-3.7266 0-6 1.5469-2.25 1.5469-2.25 3.9844 0 2.1797 1.125 3.4219 1.125 1.2422 3.9609 1.8984 1.5.32813 4.2656.79688 2.7656.46875 4.6875.96093 3.8906 1.0312 5.8594 3.1172t1.9688 5.8359zm34.5 9.9609h-4.9453l-3.4219-9.7266h-15.094l-3.4219 9.7266h-4.7109l12.703-34.898h6.1875zm-9.7969-13.711-6.1172-17.133-6.1406 17.133zm41.719 13.711h-5.7422l-16.547-31.219v31.219h-4.3359v-34.898h7.1953l15.094 28.5v-28.5h4.3359zm34.172-30.773h-12.469v30.773h-4.6406v-30.773h-12.469v-4.125h29.578zm16.992 30.773h-13.781v-3.5625h4.5703v-27.773h-4.5703v-3.5625h13.781v3.5625h-4.5703v27.773h4.5703z"/>
    <path d="m514.53 392.52 12.6-28h5.12l12.64 28h-5.44l-10.84-25.24h2.08l-10.8 25.24zm5.8-6.48 1.4-4.08h15.12l1.4 4.08zm40.68 6.88q-3.2 0-5.96-1.04-2.72-1.08-4.76-3-2-1.96-3.12-4.6t-1.12-5.76 1.12-5.76 3.16-4.56q2.04-1.96 4.76-3 2.72-1.08 5.96-1.08 3.44 0 6.28 1.2 2.84 1.16 4.8 3.48l-3.36 3.16q-1.52-1.64-3.4-2.44-1.88-.84-4.08-.84t-4.04.72q-1.8.72-3.16 2.04-1.32 1.32-2.08 3.12-.72 1.8-.72 3.96t.72 3.96q.76 1.8 2.08 3.12 1.36 1.32 3.16 2.04 1.84.72 4.04.72t4.08-.8q1.88-.84 3.4-2.52l3.36 3.2q-1.96 2.28-4.8 3.48t-6.32 1.2zm27.532 0q-3.28 0-6.04-1.08t-4.8-3q-2.04-1.96-3.16-4.56-1.12-2.64-1.12-5.76t1.12-5.72q1.12-2.64 3.16-4.56 2.04-1.96 4.8-3.04t6-1.08q3.28 0 6 1.08 2.76 1.08 4.8 3.04 2.04 1.92 3.16 4.56 1.12 2.6 1.12 5.72t-1.12 5.76-3.16 4.56-4.8 3q-2.72 1.08-5.96 1.08zm-.04-4.56q2.12 0 3.92-.72t3.12-2.04q1.32-1.36 2.04-3.12.76-1.8.76-3.96t-.76-3.92q-.72-1.8-2.04-3.12-1.32-1.36-3.12-2.08t-3.92-.72-3.92.72q-1.76.72-3.12 2.08-1.32 1.32-2.08 3.12-.72 1.76-.72 3.92 0 2.12.72 3.92.76 1.8 2.08 3.16 1.32 1.32 3.12 2.04t3.92.72zm29.28 4.56q-3.28 0-6.28-.92-3-.96-4.76-2.44l1.8-4.04q1.68 1.32 4.16 2.2t5.08.88q2.2 0 3.56-.48t2-1.28q.64-.84.64-1.88 0-1.28-.92-2.04-.92-.8-2.4-1.24-1.44-.48-3.24-.88-1.76-.4-3.56-.92-1.76-.56-3.24-1.4-1.44-.88-2.36-2.32t-.92-3.68q0-2.28 1.2-4.16 1.24-1.92 3.72-3.04 2.52-1.16 6.36-1.16 2.52 0 5 .64t4.32 1.84l-1.64 4.04q-1.88-1.12-3.88-1.64-2-.56-3.84-.56-2.16 0-3.52.52-1.32.52-1.96 1.36-.6.84-.6 1.92 0 1.28.88 2.08.92.76 2.36 1.2 1.48.44 3.28.88 1.8.4 3.56.92 1.8.52 3.24 1.36 1.48.84 2.36 2.28.92 1.44.92 3.64 0 2.24-1.24 4.16-1.2 1.88-3.72 3.04-2.52 1.12-6.36 1.12zm21.76-.4v-23.6h-9.28v-4.4h23.76v4.4h-9.28v23.6zm13.04 0 12.6-28h5.12l12.64 28h-5.44l-10.84-25.24h2.08l-10.8 25.24zm5.8-6.48 1.4-4.08h15.12l1.4 4.08z"/>
   </g>
   <path d="m11.308 20.044q-.7907 0-1.5155-.20709-.7248-.2165-1.1672-.55537l.51772-1.1484q.42359.30122.99778.49889.58361.18826 1.1766.18826.45183 0 .7248-.08472.28239-.09413.41417-.25415t.13178-.36711q0-.26356-.20709-.41417-.20709-.16002-.54596-.25415-.33887-.10354-.75304-.18826-.40476-.09413-.81893-.22591-.40476-.13178-.74363-.33887-.33887-.20709-.55537-.54596-.20709-.33887-.20709-.866 0-.56478.30122-1.026.31063-.47065.92248-.74363.62126-.28239 1.5532-.28239.62126 0 1.2237.15061.60244.1412 1.0637.433l-.47065 1.1578q-.46124-.26356-.92248-.38594-.46124-.13178-.90365-.13178t-.7248.10354q-.28239.10354-.40476.27298-.12237.16002-.12237.37652 0 .25415.20709.41417.20709.15061.54596.24474.33887.09413.74363.18826.41417.09413.81894.2165.41417.12237.75304.32946.33887.20709.54596.54596.2165.33887.2165.85659 0 .55537-.31063 1.0166-.31063.46124-.93189.74363-.61185.28239-1.5532.28239z" fill="#fff" stroke-width=".098052" aria-label="S"/>
   <path d="m14.462 19.965 2.9369-6.5891h1.5061l2.9463 6.5891h-1.6002l-2.4097-5.8173h.60244l-2.4192 5.8173zm1.4684-1.412.40476-1.1578h3.3887l.41417 1.1578z" fill="#0760c3" stroke-width=".098052" aria-label="A"/>
  </g>
 </g>
</svg>
